# Blender v2.80 (sub 51) OBJ File: 'stone.blend'
# www.blender.org
o Icosphere_Icosphere.001
v 0.131619 -0.711188 0.033459
v 0.073038 -0.712851 -0.235327
v -0.120846 -0.525401 -0.595522
v 0.941794 0.275595 -0.048127
v 0.810060 -0.277579 0.451690
v 0.650820 -0.453181 0.529576
v 0.776480 -0.315624 -0.335050
v 0.852085 -0.161504 -0.434767
v 0.932935 0.074673 -0.392647
v 0.586414 -0.187085 0.768883
v -0.945877 -0.336188 0.231466
v -0.404935 -0.447922 0.829802
v -0.459956 -0.039077 0.788906
v -0.562412 -0.228492 -0.710480
v -0.983943 -0.287865 -0.054770
v -0.831490 0.156489 -0.331298
v 0.320427 0.070915 -0.814493
v -0.290053 -0.371122 -0.710234
v -0.007191 0.614044 0.068233
v 0.401131 0.181704 0.558214
v 0.723170 0.452696 -0.120874
v 0.197662 0.621542 -0.126920
v -0.061222 0.662289 -0.051137
v -0.296944 0.522651 0.235156
v -0.157150 0.661324 -0.031765
v 0.310452 0.639108 -0.408058
v 0.517591 0.583219 -0.288137
v 0.232690 0.584029 -0.554105
v 0.526693 0.582324 -0.448948
v 0.737167 0.472090 -0.333242
v 0.518249 0.493049 -0.572512
v 0.323855 0.403226 -0.700423
v -0.211656 0.649631 -0.289937
v -0.196995 0.606872 -0.451427
v -0.442359 0.565102 -0.340230
v -0.321000 0.521598 -0.489296
v 0.013000 0.471489 -0.656396
v -0.508942 0.569208 -0.005078
v -0.567356 0.474251 0.152790
v -0.700922 0.462418 -0.078551
v -0.053234 0.462683 0.328537
v -0.325016 0.306272 0.523403
v 0.433175 0.403893 0.191845
v 0.889788 0.283372 -0.390631
v 0.710428 0.391073 -0.534595
v 0.814540 0.060570 -0.572870
v 0.551380 0.275171 -0.703468
v 0.685814 0.012020 -0.654756
v 0.729922 -0.157450 -0.538625
v -0.230868 0.071668 -0.846656
v -0.305294 -0.134938 -0.837270
v -0.487930 0.056958 -0.737385
v -0.618032 0.132634 -0.583942
v -0.533557 -0.075147 -0.756482
v -0.893305 0.261275 -0.049971
v -0.989061 -0.016826 -0.140109
v -0.870388 0.242103 0.145776
v -1.009248 -0.034719 0.081351
v -0.567875 0.166430 0.545574
v -0.947482 -0.100038 0.314300
v -0.092555 0.104088 0.715816
v -0.235073 -0.282227 0.901183
v -0.217208 -0.121901 0.863305
v 0.048171 0.240593 0.575172
v 0.702356 0.172317 0.402635
v 0.713706 0.015657 0.547101
v 0.872317 0.016679 0.377613
v 0.886480 0.210038 0.172577
v 0.170071 0.232618 -0.821667
v 0.055714 0.104530 -0.864265
v -0.075317 -0.047189 -0.873624
v 0.026463 -0.151315 -0.816686
v -0.734575 -0.100933 -0.596160
v -0.926682 -0.133667 -0.327779
v -0.824199 -0.317116 -0.379503
v -0.513633 -0.487340 -0.551900
v -0.866457 -0.499662 0.065310
v -0.637309 -0.029820 0.688777
v -0.765988 -0.100692 0.600159
v -0.565943 -0.196094 0.788088
v -0.782692 -0.253965 0.595060
v -0.529913 -0.364349 0.784466
v -0.823563 -0.392231 0.453399
v -0.562462 -0.535028 0.671554
v 0.476974 -0.049073 0.754949
v 0.203645 -0.224733 0.901555
v 0.363239 -0.249991 0.881915
v 0.752997 -0.231925 0.615918
v 0.191426 -0.441921 0.901568
v 0.449342 -0.450283 0.793994
v 0.670815 -0.380282 0.642782
v -0.090850 -0.503670 0.887041
v 0.981881 0.202128 -0.123172
v 0.968552 0.013300 0.176864
v 0.956272 -0.069361 -0.197061
v 0.844075 -0.307710 -0.130317
v 0.694936 -0.440354 -0.040501
v -0.005399 -0.595263 -0.480339
v -0.168330 -0.666108 -0.440308
v -0.075409 -0.751491 -0.230495
v -0.413819 -0.576519 -0.519512
v -0.450592 -0.642516 -0.394982
v -0.392253 -0.711390 -0.235304
v -0.792801 -0.525159 -0.101112
v -0.430707 -0.735365 0.084318
v -0.637643 -0.679089 0.187177
v -0.730022 -0.579221 0.398203
v -0.533645 -0.659503 0.496336
v -0.283411 -0.712142 0.417023
v -0.308723 -0.624271 0.709614
v 0.077903 -0.634619 0.709826
v 0.507198 -0.438478 -0.364115
v 0.416037 -0.595462 -0.100303
v 0.054529 -0.587845 0.813764
v 0.416886 -0.567021 0.630636
v -0.044942 -0.743328 0.064559
vt 0.707727 0.293492
vt 0.663913 0.299472
vt 0.732467 0.253500
vt 0.692145 0.387362
vt 0.671142 0.336981
vt 0.647547 0.332782
vt 0.636306 0.280229
vt 0.651599 0.379385
vt 0.621213 0.329895
vt 0.614969 0.365543
vt 0.596171 0.295243
vt 0.691126 0.437541
vt 0.695500 0.218870
vt 0.617076 0.237451
vt 0.740826 0.229817
vt 0.670886 0.215288
vt 0.698219 0.169615
vt 0.664902 0.183500
vt 0.756122 0.179567
vt 0.791880 0.218870
vt 0.793341 0.164204
vt 0.752143 0.138223
vt 0.814558 0.099384
vt 0.755704 0.268603
vt 0.810623 0.269482
vt 0.867592 0.219514
vt 0.870477 0.304532
vt 0.856269 0.379539
vt 0.887185 0.170595
vt 0.764826 0.359354
vt 0.798321 0.435411
vt 0.307355 0.507967
vt 0.302959 0.537208
vt 0.246100 0.528779
vt 0.306730 0.403003
vt 0.347777 0.474283
vt 0.282953 0.459134
vt 0.668602 0.452351
vt 0.626486 0.412222
vt 0.604698 0.450479
vt 0.331247 0.529098
vt 0.568605 0.419182
vt 0.579056 0.337129
vt 0.374683 0.500688
vt 0.537447 0.390310
vt 0.522512 0.290439
vt 0.419648 0.248207
vt 0.479129 0.248232
vt 0.441241 0.335265
vt 0.562447 0.265864
vt 0.534989 0.229169
vt 0.549773 0.160951
vt 0.515182 0.194595
vt 0.588213 0.106682
vt 0.529119 0.122766
vt 0.491361 0.310033
vt 0.635322 0.094059
vt 0.565612 0.081722
vt 0.445016 0.188670
vt 0.483428 0.184446
vt 0.682395 0.014621
vt 0.757115 0.018528
vt 0.699345 0.066543
vt 0.765241 0.083896
vt 0.807922 0.024030
vt 0.388124 0.071557
vt 0.312165 0.066119
vt 0.354936 0.033283
vt 0.286553 0.009273
vt 0.863847 0.038475
vt 0.247635 0.066837
vt 0.219306 0.015747
vt 0.114838 0.161698
vt 0.065096 0.168239
vt 0.094815 0.092710
vt 0.948009 0.142658
vt 0.972013 0.194130
vt 0.918980 0.285886
vt 0.059369 0.098135
vt 0.986807 0.258712
vt 0.034929 0.171654
vt 0.911568 0.426832
vt 0.901802 0.465795
vt 0.839957 0.468043
vt 0.066096 0.406985
vt 0.069329 0.456313
vt 0.031062 0.362843
vt 0.787488 0.490874
vt 0.734278 0.454851
vt 0.109208 0.423419
vt 0.087988 0.371792
vt 0.120178 0.370090
vt 0.119514 0.489933
vt 0.464321 0.415408
vt 0.378474 0.276501
vt 0.615666 0.049979
vt 0.446112 0.125350
vt 0.374978 0.118557
vt 0.394253 0.191498
vt 0.304890 0.132747
vt 0.276354 0.107926
vt 0.914032 0.082736
vt 0.148324 0.040135
vt 0.109551 0.049149
vt 0.159704 0.067833
vt 0.117023 0.124743
vt 0.199310 0.085251
vt 0.156339 0.141701
vt 0.211344 0.124833
vt 0.978110 0.351713
vt 0.015307 0.258623
vt 0.031407 0.302407
vt 0.003981 0.333515
vt 0.069187 0.268431
vt 0.076758 0.316082
vt 0.092588 0.214968
vt 0.722612 0.498087
vt 0.636077 0.490501
vt 0.229726 0.470946
vt 0.224009 0.419220
vt 0.289321 0.299433
vt 0.343129 0.298122
vt 0.292869 0.265825
vt 0.336759 0.258729
vt 0.240934 0.262288
vt 0.237192 0.297496
vt 0.363884 0.219144
vt 0.335607 0.207967
vt 0.306727 0.214013
vt 0.252925 0.200529
vt 0.244466 0.154271
vt 0.187071 0.159888
vt 0.197415 0.208295
vt 0.140725 0.191310
vt 0.130156 0.258041
vt 0.248814 0.366287
vt 0.119658 0.313018
vt 0.106762 0.246650
vn 0.1934 0.9713 0.1383
vn 0.2830 0.8933 0.3492
vn 0.1846 0.9735 0.1349
vn 0.1554 0.8941 -0.4199
vn 0.2556 0.9667 0.0091
vn 0.5214 0.8530 0.0248
vn 0.4131 0.9040 0.1098
vn 0.2126 0.7851 -0.5818
vn 0.4758 0.6972 -0.5362
vn 0.1667 0.6697 -0.7237
vn 0.6028 0.7900 0.1119
vn 0.5822 0.7245 -0.3688
vn 0.0071 0.9983 -0.0574
vn 0.0312 0.6382 -0.7692
vn -0.0184 0.9990 -0.0414
vn -0.0392 0.9651 -0.2591
vn -0.0308 0.9405 -0.3383
vn -0.2790 0.9217 -0.2694
vn -0.3682 0.7681 -0.5239
vn -0.1075 0.7754 -0.6223
vn -0.2485 0.6715 -0.6981
vn -0.2526 0.9675 0.0095
vn -0.2104 0.9083 0.3617
vn -0.3282 0.9415 -0.0767
vn -0.2815 0.8647 0.4160
vn -0.4538 0.8853 -0.1010
vn -0.5455 0.7919 0.2745
vn -0.5847 0.7542 0.2990
vn 0.0613 0.9347 0.3500
vn -0.0206 0.8916 0.4524
vn 0.0188 0.8629 0.5051
vn -0.0321 0.8008 0.5980
vn 0.1577 0.7652 0.6242
vn -0.3069 0.7753 0.5521
vn -0.3691 0.7318 0.5730
vn 0.0407 0.7508 0.6593
vn 0.2274 0.9343 0.2746
vn 0.3156 0.8759 0.3649
vn 0.2771 0.8765 0.3937
vn 0.2439 0.8190 0.5194
vn 0.2455 0.8192 0.5183
vn 0.3505 0.8197 0.4530
vn 0.2909 0.8066 0.5146
vn 0.9173 -0.2603 -0.3012
vn 0.3800 -0.6863 -0.6201
vn 0.8199 0.5615 -0.1117
vn 0.7584 0.6439 -0.1005
vn 0.9438 0.1977 -0.2649
vn 0.6729 0.6510 -0.3513
vn 0.8274 -0.1890 -0.5288
vn 0.8167 0.1742 -0.5502
vn 0.6996 0.2957 -0.6504
vn 0.5982 0.2756 -0.7525
vn 0.4201 0.5136 -0.7482
vn 0.5932 -0.3504 -0.7248
vn 0.2849 0.5253 -0.8018
vn 0.4907 -0.6301 -0.6018
vn 0.6030 -0.3381 -0.7225
vn 0.5068 0.1004 -0.8562
vn 0.4054 0.0380 -0.9133
vn 0.0314 -0.4719 -0.8811
vn 0.0099 0.5733 -0.8193
vn -0.1013 0.3942 -0.9134
vn -0.1459 0.4962 -0.8558
vn -0.3044 0.5543 -0.7747
vn -0.0752 0.1260 -0.9892
vn -0.3560 0.5364 -0.7652
vn -0.1610 0.0132 -0.9869
vn 0.0328 -0.4547 -0.8901
vn -0.4908 0.5410 -0.6830
vn -0.3162 0.0709 -0.9460
vn -0.3902 0.2623 -0.8826
vn -0.5490 0.5684 -0.6128
vn -0.3733 -0.2014 -0.9056
vn -0.8491 0.2731 -0.4522
vn -0.6644 0.6237 -0.4117
vn -0.6948 0.6105 -0.3801
vn -0.8513 0.4023 -0.3369
vn -0.7037 0.6944 0.1504
vn -0.9380 0.3417 -0.0579
vn -0.9611 -0.0993 -0.2577
vn -0.8975 0.4163 0.1458
vn -0.9943 -0.0485 -0.0946
vn -0.5254 0.6700 0.5244
vn -0.8718 0.3600 0.3321
vn -0.9825 -0.1544 0.1046
vn -0.9687 -0.0880 0.2322
vn -0.3367 -0.0596 0.9397
vn -0.3567 0.6297 0.6901
vn -0.3128 0.6527 0.6900
vn -0.0916 0.6292 0.7718
vn 0.0256 0.7044 0.7093
vn -0.2756 0.1811 0.9441
vn -0.0579 0.5678 0.8211
vn -0.2061 0.2467 0.9469
vn 0.3566 0.6712 0.6499
vn 0.5047 0.4731 0.7221
vn 0.4037 0.6359 0.6578
vn 0.6876 0.3027 0.6600
vn 0.7003 0.2791 0.6570
vn 0.6007 0.5651 0.5656
vn 0.5985 0.5618 0.5711
vn 0.3929 0.8041 0.4463
vn 0.8315 -0.3887 0.3970
vn 0.7698 -0.5899 0.2439
vn 0.9184 -0.1575 0.3629
vn 0.9015 -0.0181 0.4325
vn 0.2253 0.4212 -0.8785
vn 0.2684 0.2078 -0.9406
vn 0.2004 0.1434 -0.9692
vn 0.1731 -0.0890 -0.9809
vn 0.3112 -0.4032 -0.8606
vn 0.2252 -0.2887 -0.9306
vn 0.3193 -0.4777 -0.8184
vn 0.2977 -0.5700 -0.7658
vn 0.0861 -0.5319 -0.8424
vn -0.6043 0.5631 -0.5637
vn -0.6235 0.3478 -0.7002
vn -0.6898 0.3765 -0.6184
vn -0.6159 0.3170 -0.7212
vn -0.8005 0.2561 -0.5418
vn -0.6095 -0.1204 -0.7836
vn -0.6851 -0.3540 -0.6367
vn -0.7685 -0.2651 -0.5824
vn -0.8479 -0.3653 -0.3842
vn -0.2461 -0.4714 -0.8469
vn -0.6130 -0.4935 -0.6170
vn -0.7661 -0.5533 -0.3270
vn -0.7767 -0.5757 -0.2555
vn -0.2817 -0.5393 -0.7936
vn -0.6058 -0.6685 -0.4313
vn -0.7681 0.4138 0.4886
vn -0.5756 0.6050 0.5501
vn -0.6600 0.5190 0.5432
vn -0.6245 0.1851 0.7588
vn -0.4563 0.3037 0.8364
vn -0.8418 0.0740 0.5347
vn -0.6715 0.0486 0.7394
vn -0.8870 -0.1582 0.4339
vn -0.6344 -0.1522 0.7579
vn -0.8795 -0.1880 0.4372
vn -0.4006 -0.1054 0.9102
vn -0.7066 -0.3936 0.5880
vn -0.6540 -0.3267 0.6824
vn -0.6997 -0.5005 0.5098
vn -0.5343 -0.3931 0.7483
vn -0.8829 -0.4680 0.0384
vn -0.8066 -0.4976 0.3189
vn 0.1425 0.6352 0.7591
vn 0.1291 0.6676 0.7333
vn 0.0513 0.5258 0.8490
vn 0.0911 0.5507 0.8297
vn 0.1790 0.4512 0.8743
vn 0.3399 0.3573 0.8699
vn -0.0314 0.2331 0.9719
vn -0.0009 0.0001 1.0000
vn 0.1211 -0.0068 0.9926
vn 0.3674 -0.2368 0.8994
vn 0.4829 -0.1695 0.8591
vn 0.6174 -0.2504 0.7457
vn 0.5936 -0.1871 0.7828
vn -0.0327 -0.0849 0.9959
vn -0.2096 -0.1977 0.9576
vn 0.5120 0.7799 0.3600
vn 0.8434 0.3605 0.3983
vn 0.8694 0.3698 0.3277
vn 0.9331 0.2841 0.2203
vn 0.9958 -0.0905 -0.0127
vn 0.9866 -0.0508 -0.1552
vn 0.9036 -0.4218 0.0746
vn 0.9096 -0.4111 0.0610
vn 0.8639 -0.4625 -0.1994
vn 0.7996 -0.5493 -0.2428
vn 0.7555 -0.6506 0.0778
vn 0.5972 -0.7845 -0.1669
vn 0.3357 -0.6744 -0.6577
vn 0.3548 -0.7935 -0.4944
vn 0.3476 -0.6057 -0.7157
vn 0.2116 -0.8690 -0.4473
vn 0.2469 -0.8404 -0.4824
vn 0.1805 -0.9835 0.0086
vn 0.2501 -0.9670 -0.0485
vn 0.1732 -0.7555 -0.6319
vn -0.0822 -0.6511 -0.7545
vn -0.2563 -0.5703 -0.7805
vn -0.0483 -0.7326 -0.6789
vn -0.1513 -0.8542 -0.4974
vn -0.4705 -0.7146 -0.5177
vn -0.1135 -0.9368 -0.3309
vn -0.1338 -0.9268 -0.3509
vn -0.5995 -0.6763 -0.4280
vn -0.1237 -0.9883 -0.0890
vn -0.4630 -0.8628 -0.2030
vn -0.4704 -0.8583 -0.2051
vn -0.3106 -0.9444 -0.1082
vn -0.5691 -0.8123 -0.1274
vn -0.7948 -0.5771 0.1878
vn -0.6412 -0.7631 0.0804
vn -0.4576 -0.8643 0.2087
vn -0.2001 -0.9713 0.1288
vn -0.5187 -0.7349 0.4368
vn -0.1613 -0.9770 0.1396
vn -0.1130 -0.9543 0.2768
vn -0.0191 -0.9994 0.0296
vn -0.0166 -0.9969 0.0769
vn -0.3530 -0.7892 0.5026
vn -0.3308 -0.6480 0.6860
vn -0.0258 -0.9580 0.2855
vn -0.2461 -0.6340 0.7332
vn 0.4190 -0.8328 -0.3618
vn 0.5093 -0.8340 -0.2122
vn 0.4232 -0.8367 -0.3476
vn 0.6761 -0.7360 0.0358
vn 0.3476 -0.9350 -0.0700
vn 0.4831 -0.8754 0.0177
vn 0.4492 -0.8928 0.0342
vn 0.3909 -0.9198 0.0353
vn -0.1101 -0.7539 0.6477
vn -0.0247 -0.9137 0.4056
vn 0.0825 -0.5695 0.8178
vn 0.2677 -0.6686 0.6938
vn 0.2740 -0.8525 0.4452
vn 0.3053 -0.8024 0.5128
vn 0.0909 -0.9847 0.1486
vn 0.2224 -0.9666 0.1271
vn 0.5232 -0.7391 0.4242
vn 0.5336 -0.7509 0.3893
vn 0.1991 -0.9719 0.1258
s off
f 22/1/1 26/2/1 23/3/1
f 21/4/2 27/5/2 22/1/2
f 27/5/3 26/2/3 22/1/3
f 29/6/4 28/7/4 26/2/4
f 27/5/5 29/6/5 26/2/5
f 21/4/6 29/6/6 27/5/6
f 21/4/7 30/8/7 29/6/7
f 29/6/8 31/9/8 28/7/8
f 45/10/9 31/9/9 29/6/9
f 28/7/10 31/9/10 32/11/10
f 4/12/11 30/8/11 21/4/11
f 30/8/12 45/10/12 29/6/12
f 26/2/13 33/13/13 23/3/13
f 32/11/14 37/14/14 28/7/14
f 23/3/15 33/13/15 25/15/15
f 26/2/16 34/16/16 33/13/16
f 26/2/17 28/7/17 34/16/17
f 34/16/18 35/17/18 33/13/18
f 34/16/19 36/18/19 35/17/19
f 28/7/20 37/14/20 34/16/20
f 34/16/21 37/14/21 36/18/21
f 33/13/22 38/19/22 25/15/22
f 38/19/23 24/20/23 25/15/23
f 35/17/24 38/19/24 33/13/24
f 38/19/25 39/21/25 24/20/25
f 35/17/26 40/22/26 38/19/26
f 40/22/27 39/21/27 38/19/27
f 40/22/28 57/23/28 39/21/28
f 25/15/29 19/24/29 23/3/29
f 25/15/30 24/20/30 19/24/30
f 24/20/31 41/25/31 19/24/31
f 42/26/32 41/25/32 24/20/32
f 41/25/33 64/27/33 20/28/33
f 39/21/34 42/26/34 24/20/34
f 59/29/35 42/26/35 39/21/35
f 42/26/36 64/27/36 41/25/36
f 19/24/37 22/1/37 23/3/37
f 19/24/38 43/30/38 22/1/38
f 43/30/39 21/4/39 22/1/39
f 41/25/40 20/28/40 19/24/40
f 20/28/41 43/30/41 19/24/41
f 43/30/42 65/31/42 21/4/42
f 20/28/43 65/31/43 43/30/43
f 8/32/44 9/33/44 95/34/44
f 112/35/45 49/36/45 7/37/45
f 93/38/46 44/39/46 4/12/46
f 4/12/47 44/39/47 30/8/47
f 9/40/48 44/39/48 93/38/48
f 44/39/49 45/10/49 30/8/49
f 8/32/50 46/41/50 9/33/50
f 9/40/51 46/42/51 44/39/51
f 46/42/52 45/10/52 44/39/52
f 46/42/53 47/43/53 45/10/53
f 45/10/54 47/43/54 31/9/54
f 8/32/55 48/44/55 46/41/55
f 47/43/56 32/11/56 31/9/56
f 7/37/57 49/36/57 8/32/57
f 8/32/58 49/36/58 48/44/58
f 48/45/59 47/43/59 46/42/59
f 48/45/60 17/46/60 47/43/60
f 18/47/61 51/48/61 72/49/61
f 69/50/62 37/14/62 32/11/62
f 70/51/63 50/52/63 69/50/63
f 50/52/64 37/14/64 69/50/64
f 50/52/65 36/18/65 37/14/65
f 71/53/66 50/52/66 70/51/66
f 50/52/67 52/54/67 36/18/67
f 51/55/68 50/52/68 71/53/68
f 72/49/69 51/48/69 71/56/69
f 52/54/70 53/57/70 36/18/70
f 51/55/71 54/58/71 50/52/71
f 54/58/72 52/54/72 50/52/72
f 53/57/73 35/17/73 36/18/73
f 14/59/74 54/60/74 51/48/74
f 74/61/75 56/62/75 16/63/75
f 16/63/76 40/22/76 35/17/76
f 55/64/77 40/22/77 16/63/77
f 56/62/78 55/64/78 16/63/78
f 55/64/79 57/23/79 40/22/79
f 56/62/80 58/65/80 55/64/80
f 74/66/81 15/67/81 56/68/81
f 58/65/82 57/23/82 55/64/82
f 15/67/83 58/69/83 56/68/83
f 57/23/84 59/29/84 39/21/84
f 58/65/85 60/70/85 57/23/85
f 15/67/86 11/71/86 58/69/86
f 11/71/87 60/72/87 58/69/87
f 12/73/88 62/74/88 80/75/88
f 78/76/89 13/77/89 59/29/89
f 13/77/90 42/26/90 59/29/90
f 13/77/91 61/78/91 42/26/91
f 61/78/92 64/27/92 42/26/92
f 80/75/93 62/74/93 13/79/93
f 63/80/94 61/78/94 13/77/94
f 62/74/95 63/81/95 13/79/95
f 85/82/96 65/31/96 20/28/96
f 10/83/97 66/84/97 85/82/97
f 85/82/98 66/84/98 65/31/98
f 88/85/99 67/86/99 10/87/99
f 10/83/100 67/88/100 66/84/100
f 66/84/101 67/88/101 65/31/101
f 67/88/102 68/89/102 65/31/102
f 68/89/103 21/4/103 65/31/103
f 5/90/104 88/85/104 91/91/104
f 91/91/105 6/92/105 5/90/105
f 5/90/106 94/93/106 88/85/106
f 88/85/107 94/93/107 67/86/107
f 47/43/108 69/50/108 32/11/108
f 47/43/109 17/46/109 69/50/109
f 17/46/110 70/51/110 69/50/110
f 17/46/111 71/53/111 70/51/111
f 48/44/112 72/49/112 17/94/112
f 17/94/113 72/49/113 71/56/113
f 49/36/114 72/49/114 48/44/114
f 49/36/115 3/95/115 72/49/115
f 3/95/116 18/47/116 72/49/116
f 53/57/117 16/63/117 35/17/117
f 52/54/118 73/96/118 53/57/118
f 53/57/119 73/96/119 16/63/119
f 54/58/120 73/96/120 52/54/120
f 73/96/121 74/61/121 16/63/121
f 54/60/122 14/59/122 73/97/122
f 14/59/123 75/98/123 73/97/123
f 73/97/124 75/98/124 74/66/124
f 75/98/125 15/67/125 74/66/125
f 51/48/126 18/47/126 14/59/126
f 14/59/127 76/99/127 75/98/127
f 75/98/128 104/100/128 15/67/128
f 104/100/129 77/101/129 15/67/129
f 18/47/130 76/99/130 14/59/130
f 76/99/131 104/100/131 75/98/131
f 60/70/132 79/102/132 57/23/132
f 57/23/133 78/76/133 59/29/133
f 57/23/134 79/102/134 78/76/134
f 79/103/135 80/75/135 78/104/135
f 78/104/136 80/75/136 13/79/136
f 60/72/137 81/105/137 79/103/137
f 81/105/138 80/75/138 79/103/138
f 11/71/139 81/105/139 60/72/139
f 81/105/140 82/106/140 80/75/140
f 11/71/141 83/107/141 81/105/141
f 82/106/142 12/73/142 80/75/142
f 83/107/143 84/108/143 81/105/143
f 81/105/144 84/108/144 82/106/144
f 107/109/145 84/108/145 83/107/145
f 84/108/146 12/73/146 82/106/146
f 15/67/147 77/101/147 11/71/147
f 11/71/148 107/109/148 83/107/148
f 64/27/149 61/78/149 20/28/149
f 61/78/150 85/82/150 20/28/150
f 63/80/151 86/110/151 61/78/151
f 61/78/152 86/110/152 85/82/152
f 86/111/153 87/112/153 85/113/153
f 87/112/154 10/87/154 85/113/154
f 63/81/155 62/74/155 86/111/155
f 62/74/156 89/114/156 86/111/156
f 86/111/157 89/114/157 87/112/157
f 89/114/158 90/115/158 87/112/158
f 87/112/159 90/115/159 10/87/159
f 10/87/160 90/115/160 88/85/160
f 90/115/161 91/91/161 88/85/161
f 92/116/162 89/114/162 62/74/162
f 12/73/163 92/116/163 62/74/163
f 68/89/164 4/12/164 21/4/164
f 67/88/165 94/117/165 68/89/165
f 68/89/166 94/117/166 4/12/166
f 94/117/167 93/38/167 4/12/167
f 94/117/168 95/118/168 93/38/168
f 93/38/169 95/118/169 9/40/169
f 5/90/170 96/119/170 94/93/170
f 94/93/171 96/119/171 95/34/171
f 95/34/172 96/119/172 8/32/172
f 96/119/173 7/37/173 8/32/173
f 6/92/174 96/119/174 5/90/174
f 97/120/175 7/37/175 96/119/175
f 112/35/176 3/95/176 49/36/176
f 2/121/177 98/122/177 112/35/177
f 112/35/178 98/122/178 3/95/178
f 100/123/179 99/124/179 2/121/179
f 2/121/180 99/124/180 98/122/180
f 116/125/181 100/123/181 1/126/181
f 1/126/182 100/123/182 2/121/182
f 99/124/183 3/95/183 98/122/183
f 3/95/184 101/127/184 18/47/184
f 101/127/185 76/99/185 18/47/185
f 3/95/186 99/124/186 101/127/186
f 99/124/187 102/128/187 101/127/187
f 101/127/188 102/128/188 76/99/188
f 100/123/189 103/129/189 99/124/189
f 99/124/190 103/129/190 102/128/190
f 102/128/191 104/100/191 76/99/191
f 100/123/192 105/130/192 103/129/192
f 103/129/193 106/131/193 102/128/193
f 106/131/194 104/100/194 102/128/194
f 105/130/195 106/131/195 103/129/195
f 104/100/196 106/131/196 77/101/196
f 77/101/197 107/109/197 11/71/197
f 106/131/198 107/109/198 77/101/198
f 106/131/199 108/132/199 107/109/199
f 105/130/200 108/132/200 106/131/200
f 108/132/201 84/108/201 107/109/201
f 105/130/202 109/133/202 108/132/202
f 109/133/203 110/134/203 108/132/203
f 100/123/204 116/125/204 105/130/204
f 116/125/205 109/133/205 105/130/205
f 108/132/206 110/134/206 84/108/206
f 110/134/207 12/73/207 84/108/207
f 109/133/208 111/135/208 110/134/208
f 110/134/209 92/116/209 12/73/209
f 7/37/210 2/121/210 112/35/210
f 97/120/211 113/136/211 7/37/211
f 7/37/212 113/136/212 2/121/212
f 96/119/213 6/92/213 97/120/213
f 113/136/214 1/126/214 2/121/214
f 6/92/215 113/136/215 97/120/215
f 6/92/216 115/137/216 113/136/216
f 115/137/217 1/126/217 113/136/217
f 110/134/218 114/138/218 92/116/218
f 110/134/219 111/135/219 114/138/219
f 114/138/220 89/114/220 92/116/220
f 114/138/221 90/115/221 89/114/221
f 111/135/222 115/137/222 114/138/222
f 114/138/223 115/137/223 90/115/223
f 116/125/224 111/135/224 109/133/224
f 1/126/225 115/137/225 111/135/225
f 115/137/226 91/91/226 90/115/226
f 115/137/227 6/92/227 91/91/227
f 116/125/228 1/126/228 111/135/228
